<svg width="113" height="22" viewBox="0 0 113 22" fill="none" xmlns="http://www.w3.org/2000/svg">
<rect x="0.25" y="0.25" width="112.5" height="21.5" stroke="white" stroke-width="0.5"/>
<path d="M10.832 15L8.36 6.6H9.512L11.84 14.7L14.168 6.6H15.32L12.848 15H10.832ZM19.4734 15.108C17.3614 15.108 16.1614 13.812 16.1614 11.52V10.08C16.1614 7.788 17.3614 6.492 19.4734 6.492C21.5854 6.492 22.7854 7.788 22.7854 10.08V11.52C22.7854 13.812 21.5854 15.108 19.4734 15.108ZM17.2414 11.52C17.2414 13.092 17.8534 14.088 19.4734 14.088C21.0934 14.088 21.7054 13.092 21.7054 11.52V10.08C21.7054 8.508 21.0934 7.512 19.4734 7.512C17.8534 7.512 17.2414 8.508 17.2414 10.08V11.52ZM24.3439 15V14.004H26.0959V7.596H24.3439V6.6H28.9279V7.596H27.1759V14.004H28.9279V15H24.3439ZM30.9734 15V6.6H34.1774C35.7374 6.6 36.7214 7.428 36.7214 8.856C36.7214 10.44 35.7374 11.172 34.1774 11.172H32.3654L37.1654 15H35.4494L32.0294 12.204V15H30.9734ZM32.0294 10.188H34.1174C35.0174 10.188 35.6294 9.876 35.6294 8.868C35.6294 7.884 35.0174 7.56 34.1174 7.56H32.0294V10.188ZM41.8016 15V6.6H42.8816V13.98H46.6616V15H41.8016ZM48.1648 15V6.6H53.3248V7.584H49.2448V10.176H52.9528V11.16H49.2448V14.016H53.3248V15H48.1648ZM61.0867 15.108C58.9747 15.108 57.7747 13.812 57.7747 11.52V10.08C57.7747 7.788 58.9747 6.492 61.0867 6.492C63.0907 6.492 64.2067 7.68 64.3507 9.516H63.2587C63.1267 8.352 62.5627 7.512 61.0867 7.512C59.4667 7.512 58.8547 8.508 58.8547 10.08V11.52C58.8547 13.092 59.4667 14.088 61.0867 14.088C62.5267 14.088 63.1267 13.296 63.2347 12.18H64.3267C64.1707 13.968 63.0667 15.108 61.0867 15.108ZM71.1839 15L70.5359 12.828H67.0079L66.3599 15H65.1959L67.8119 6.6H69.7559L72.3479 15H71.1839ZM67.2959 11.868H70.2479L68.7719 6.9L67.2959 11.868ZM76.3709 15.108C74.3309 15.108 73.3589 14.064 73.3109 12.48H74.3789C74.4389 13.5 75.0509 14.136 76.3709 14.136C77.5949 14.136 78.3029 13.656 78.3029 12.696C78.3029 11.88 77.8349 11.52 76.9229 11.328L75.6989 11.064C74.3669 10.776 73.5989 10.08 73.5989 8.796C73.5989 7.44 74.6429 6.492 76.3829 6.492C78.0629 6.492 79.2389 7.5 79.2509 8.988H78.1829C78.1349 8.076 77.5349 7.476 76.3589 7.476C75.3629 7.476 74.6789 7.908 74.6789 8.796C74.6789 9.48 75.0989 9.84 75.9869 10.044L77.1269 10.308C78.5669 10.644 79.3949 11.316 79.3949 12.696C79.3949 14.196 78.1949 15.108 76.3709 15.108ZM81.2586 15V6.6H86.4186V7.584H82.3386V10.176H86.0466V11.16H82.3386V14.016H86.4186V15H81.2586Z" fill="white"/>
<path d="M105 11L94.5 17.0622L94.5 4.93782L105 11Z" fill="white"/>
</svg>
