<svg class="max-md:max-w-37.5" data-v-fc05bad6="" fill="none" height="26" viewBox="0 0 268 26" width="268" xmlns="http://www.w3.org/2000/svg"><clipPath id="a"><path d="M0 .46h268v25.08H0z"></path></clipPath><g clip-path="url(#a)" fill="#ffffff"><path d="M9.166 1.772h3.244l9.072 23.198h-4.28l-1.985-5.303H6.101L4.196 24.97H0zm4.762 14.34-3.244-9.425-3.303 9.424zM29.11 1.772h7.321c4.048 0 7.852 1.438 7.852 6.646 0 3.338-1.75 5.793-4.876 6.285l5.595 10.267H40.48l-4.88-9.821H32.86v9.82h-3.75zm6.681 9.806c2.114 0 4.584-.199 4.584-3.21 0-2.747-2.322-3.075-4.256-3.075H32.86v6.285zM62.64 1.162c6.577-.134 11.22 4.712 11.22 12.147 0 7.236-4.643 12.082-11.22 12.211-6.488 0-11.13-4.846-11.13-12.082 0-7.44 4.642-12.276 11.13-12.276m.03 20.623c4.375 0 7.261-3.665 7.261-8.61 0-4.613-2.886-8.283-7.261-8.283s-7.232 3.67-7.232 8.283c0 4.96 2.887 8.61 7.232 8.61M81.483 1.767h5.714l5.625 16.239 5.684-16.24h5.655V24.95h-3.572V5.695h-.059L94.131 24.95h-2.619L85.114 5.695h-.06V24.95h-3.57zM120.95 1.772h3.244l9.077 23.198h-4.286l-1.984-5.303h-9.116l-1.905 5.303h-4.191zm4.762 14.34-3.244-9.425-3.303 9.424zM172.941 21.215l11.245-15.713H173.12V1.767h15.738v3.735l-11.339 15.713h11.517v3.735h-16.095zM207.374 1.162c6.572-.134 11.214 4.712 11.214 12.147 0 7.236-4.642 12.082-11.214 12.211-6.488 0-11.131-4.846-11.131-12.082 0-7.44 4.643-12.276 11.131-12.276m.034 20.643c4.375 0 7.257-3.665 7.257-8.61 0-4.613-2.882-8.284-7.257-8.284-4.374 0-7.231 3.67-7.231 8.284 0 4.96 2.886 8.61 7.231 8.61M226.266 1.767h4.97l10.203 17.22.06.07h-.06l.06-.07V1.768h3.749V24.95h-4.761L230.076 7.168h-.06V24.95h-3.75zM253.299 1.767h13.957v3.735h-10.208v5.694h9.672v3.735h-9.672v6.284h10.739v3.735h-14.488zM141.4 15.546q.463-.895 1.082-1.687a12.78 12.78 0 0 1 10.227-5.109h6.508a6.31 6.31 0 0 0 4.508-1.89.225.225 0 0 1 .273-.074c.109.055.065.189 0 .278a11.4 11.4 0 0 1-1.086 1.686 12.77 12.77 0 0 1-10.223 5.104h-6.487a6.33 6.33 0 0 0-4.514 1.89.22.22 0 0 1-.268.075c-.109-.055-.064-.189 0-.278"></path><path d="M163.998 10.898a.23.23 0 0 0-.273.08c-.654.664-4.92 4.89-11.016 4.89h-6.507a4.72 4.72 0 0 0-3.72 2.108 13 13 0 0 0-1.082 1.682c-.044.089-.089.228 0 .282a.23.23 0 0 0 .268-.074 6.33 6.33 0 0 1 4.514-1.89h6.507a12.76 12.76 0 0 0 10.223-5.109 11 11 0 0 0 1.081-1.681c.05-.09.095-.228 0-.283"></path></g></svg>