<svg width="1429" height="933" viewBox="0 0 1429 933" fill="none" xmlns="http://www.w3.org/2000/svg">
<path d="M819.154 10.2473C881.869 -2.13714 949.017 -6.66453 1009.81 16.739C1039.43 29.3151 1068.43 46.9216 1087.07 73.8704C1115.26 111.455 1119.55 161.688 1113.91 206.89C1099.63 292.623 1051.94 368.822 994.764 432.708C965.983 462.34 937.681 493.026 903.94 517.172C903.772 472.329 901.639 427.367 904.299 382.596C919.373 360.677 940.054 343.286 955.343 321.488C988.965 276.094 1019.21 224.76 1024.31 167.269C1027.76 142.979 1021.63 117.827 1008.57 97.2021C989.564 69.2472 956.565 54.611 923.878 50.419C861.954 40.3102 799.935 57.7491 742.516 79.8111C643.975 120.15 554.66 182.528 482.503 260.763C441.716 305.199 406.776 356.917 390.432 415.509C385.208 438.074 381.685 461.741 386.215 484.762C390.408 505.051 406.057 524.454 427.553 526.874C463.524 534.204 497.002 514.848 525.184 495.038C580.565 451.68 625.978 397.304 670.144 342.999C724.064 274.537 775.563 204.039 821.598 129.996C822.125 278.49 822.125 426.959 821.598 575.453C731.229 626.716 630.315 667.247 524.728 664.971C466.375 665.378 404.308 646.933 364.862 601.803C337.879 572.89 328.293 532.359 327.095 493.888C326.112 436.757 347.728 381.997 374.856 332.699C424.51 248.187 495.348 177.354 575.269 121.228C648.648 69.5107 731.181 29.5307 819.154 10.2473Z" fill="white" stroke="#3642B8" stroke-width="0.125"/>
<path d="M327.479 765.465C346.89 740.535 380.812 730.895 411.302 734.962C427.623 737.162 443.699 743.527 455.619 755.161C470.424 769.522 478.1 789.906 480.095 810.143C464.029 810.241 447.972 810.251 431.925 810.182C428.992 800.23 425.804 789.505 416.866 783.19C401.641 773.98 379.824 776.835 368.041 790.395C361.431 797.473 358.34 807.064 357.118 816.498C356.17 830.126 355.182 844.439 360.081 857.49C363.953 867.55 370.094 877.571 380.049 882.557C396.076 890.936 416.465 890.124 431.818 880.543C445.508 871.969 455.883 859.064 464.117 845.358C486.627 809.527 508.932 773.57 531.619 737.856C554.423 737.847 577.227 737.827 600.04 737.886C600.07 801.413 600.07 864.94 600.04 928.477C584.082 928.516 568.142 928.536 552.193 928.487C552.144 916.853 552.164 905.229 551.822 893.614C530.152 893.35 508.443 892.705 486.793 893.605C478.442 899.774 472.194 908.406 463.452 914.145C448.989 924.166 431.769 930.11 414.226 931.332C388.214 934.206 360.423 928.751 339.575 912.287C325.474 901.455 316.204 885.392 310.992 868.606C301.663 834.183 304.734 794.169 327.479 765.465ZM509.001 855.134C523.376 855.222 537.74 855.193 552.125 855.154C552.066 832.209 552.448 809.254 551.812 786.318C537.056 808.941 523.307 832.218 509.001 855.134Z" fill="white" stroke="#3642B8" stroke-width="0.125"/>
<path d="M1153.95 734.323C1182.01 732.359 1211.62 741.477 1231.17 762.431C1251.16 783.912 1257.84 814.688 1255.67 843.353C1253.95 872.164 1240.06 901.444 1215.14 916.993C1185.77 935.347 1147.01 936.667 1115.72 922.417C1099.15 914.364 1085.12 900.907 1076.73 884.419C1066.8 866.359 1064.58 845.082 1065.14 824.783C1066.49 800.116 1076.18 775.478 1094.15 758.258C1110.41 743.344 1132.12 735.437 1153.95 734.323ZM1153.98 778.381C1140.95 779.416 1128.97 787.176 1122.57 798.572C1113.87 814.16 1113.27 833.091 1116.47 850.321C1118.52 862 1124.16 873.61 1134.17 880.412C1147.44 890.127 1165.67 890.029 1180.5 884.165C1195.85 877.607 1204.16 860.944 1205.62 844.926C1207.22 826.464 1206.04 805.413 1193.15 790.832C1183.32 780.179 1167.97 776.309 1153.98 778.381Z" fill="white" stroke="#3642B8" stroke-width="0.125"/>
<path d="M0.0882936 738.126C24.5301 738.155 48.9623 737.969 73.4139 738.126C101.141 738.273 129.884 749.551 146.7 772.353C158.041 787.812 163.683 806.786 164.807 825.799C166.088 846.153 162.627 867.163 152.821 885.197C144.08 900.44 130.666 913.236 114.437 920.188C98.9703 927.628 81.4992 928.911 64.605 929.038C43.0962 929.116 21.5874 928.979 0.0882936 928.999C0.0589634 865.381 0.0491866 801.754 0.0882936 738.126ZM49.1773 779.5C48.6298 815.303 49.0893 851.117 48.972 886.93C59.0225 886.959 69.0926 887.341 79.143 886.538C90.9631 885.275 102.148 878.011 107.486 867.271C115.268 854.142 116.089 838.125 114.584 823.302C113.264 810.164 108.649 796.379 97.8753 788.008C84.2172 777.17 65.4263 779.148 49.1773 779.5Z" fill="white" stroke="#3642B8" stroke-width="0.125"/>
<path d="M176.088 738.128C218.969 738.246 261.85 737.776 304.722 738.373C305.142 751.981 305.073 765.598 305.025 779.206C278.323 779.285 251.621 779.167 224.919 779.245C224.9 790.983 224.9 802.712 224.929 814.459C248.368 814.508 271.816 814.43 295.264 814.479C295.264 827.196 295.294 839.923 295.254 852.64C271.806 852.689 248.358 852.61 224.91 852.659C224.9 864.074 224.91 875.479 224.919 886.894C251.523 887.09 278.127 886.581 304.731 887.178C305.171 901.011 305.161 914.854 304.771 928.697C261.88 929.402 218.979 928.844 176.088 928.99C176.059 865.366 176.049 801.752 176.088 738.128Z" fill="white" stroke="#3642B8" stroke-width="0.125"/>
<path d="M612.092 738.077C660.079 738.058 708.057 738.058 756.044 738.077C756.064 751.779 756.073 765.48 756.044 779.192C740.149 779.221 724.273 779.182 708.397 779.211C708.339 829.16 708.426 879.099 708.378 929.038C692.161 929.067 675.965 929.077 659.768 929.028C659.7 879.089 659.787 829.15 659.739 779.211C643.843 779.182 627.968 779.221 612.092 779.192C612.053 765.48 612.053 751.779 612.092 738.077Z" fill="white" stroke="#3642B8" stroke-width="0.125"/>
<path d="M768.128 738.091C784.376 738.052 800.623 738.052 816.881 738.101C816.959 762.236 816.852 786.382 816.93 810.517C839.033 810.566 861.136 810.556 883.258 810.517C883.317 786.382 883.209 762.236 883.287 738.091C899.525 738.052 915.783 738.052 932.041 738.101C932.07 801.734 932.07 865.358 932.041 928.992C915.783 929.041 899.535 929.041 883.297 928.992C883.082 903.319 883.59 877.647 883.043 851.983C861.106 851.435 839.16 851.484 817.232 851.935C816.54 877.607 817.086 903.3 816.891 928.992C800.731 928.992 784.581 929.247 768.43 928.787C767.708 865.221 768.304 801.656 768.128 738.091Z" fill="white" stroke="#3642B8" stroke-width="0.125"/>
<path d="M946.092 738.099C962.331 738.05 978.59 738.05 994.848 738.099C995.063 787.917 994.526 837.744 995.102 887.571C1019.73 888.237 1044.39 887.718 1069.04 887.904C1069.07 901.504 1069.14 915.094 1068.77 928.694C1027.88 929.399 986.983 928.85 946.092 928.988C946.053 865.355 946.053 801.732 946.092 738.099Z" fill="white" stroke="#3642B8" stroke-width="0.125"/>
<path d="M1267.09 738.123C1283.98 738.055 1300.89 737.996 1317.79 738.231C1338.73 772.905 1359.51 807.686 1380.67 842.233C1381.27 807.53 1380.75 772.817 1380.96 738.104C1396.64 738.074 1412.34 738.064 1428.05 738.104C1428.06 801.743 1428.08 865.382 1428.04 929.021C1412.04 929.06 1396.06 929.099 1380.09 929.001C1358.3 892.614 1336.74 856.099 1314.37 820.083C1313.94 856.392 1314.33 892.711 1314.17 929.03C1298.46 929.06 1282.77 929.07 1267.08 929.03C1267.06 865.391 1267.05 801.762 1267.09 738.123Z" fill="white" stroke="#3642B8" stroke-width="0.125"/>
</svg>
