<svg width="500" height="500" viewBox="0 0 500 500" fill="none" xmlns="http://www.w3.org/2000/svg">
<g style="mix-blend-mode:luminosity" clip-path="url(#clip0_293_946)">
<path fill-rule="evenodd" clip-rule="evenodd" d="M250.057 13.9121C119.682 13.8725 13.9386 119.56 13.9121 249.953C13.8857 380.313 119.562 486.088 249.904 486.088C380.319 486.141 486.047 380.438 486.08 250.059C486.1 119.685 380.471 13.9518 250.057 13.9121Z" fill="#BDD642"/>
<path fill-rule="evenodd" clip-rule="evenodd" d="M472.168 250.053C472.168 251.077 472.135 252.089 472.122 253.1L404.244 253.08C417.364 249.775 424 239.201 424 221.534V179.407C424.019 168.052 421.25 159.533 415.771 154.114C410.827 149.21 403.61 146.725 394.278 146.725H366.36L366.327 253.073H349.619L349.672 146.731L331.886 146.685V146.976C331.886 146.976 331.833 202.559 331.82 205.599C330.776 202.738 310.075 146.698 310.075 146.698H292.012L291.986 253.053H282.336L262.574 146.698H238.728L218.913 253.04H212.357L197.089 205.718C202.978 202.89 209.872 195.89 209.872 178.634C209.872 156.559 200.077 146.698 178.101 146.672H151.624V253.027L134.01 253.014L134.043 199.083H102.689L102.702 214.667H114.447V224.403C114.42 234.713 111.836 238.546 104.896 238.546C99.4105 238.546 96.8593 235.176 96.8593 227.945V173.287C96.8593 165.951 99.4237 162.23 104.46 162.23C110.937 162.23 114.447 165.336 114.447 181.707V182.275H133.171V174.926C133.171 156.87 122.087 145.198 104.929 145.198C88.1284 145.198 77.2693 156.11 77.2693 172.996V227.78C77.2693 239.822 82.3122 248.83 90.7523 253.007L27.8714 252.994C27.8582 251.976 27.8252 250.965 27.8252 249.954C27.845 190.603 50.9709 134.808 92.9598 92.8528C134.929 50.8975 190.725 27.805 250.056 27.8314C372.526 27.8711 472.168 127.525 472.168 250.007V250.053ZM385.93 238.024V162.897H391.76C401.237 162.897 404.436 166.506 404.436 177.2V223.761C404.436 229.624 403.478 233.18 401.33 235.308C399.4 237.211 396.439 238.051 391.733 238.037H385.93V238.024ZM309.804 253.06V189.645C310.776 192.421 329.269 244.818 332.19 253.067H309.804V253.06ZM243.87 213.557L245.046 206.247L250.651 171.238L257.366 213.557H243.87ZM237.888 253.04L241.028 230.609H260.215L263.367 253.053L237.888 253.04ZM171.214 194.403V162.831L177.195 162.858C187.103 162.858 190.282 166.684 190.282 178.634C190.282 190.57 187.089 194.403 177.169 194.403H171.22L171.214 194.403ZM179.74 210.173L192.43 253.034H171.214V210.55C174.06 210.539 176.904 210.413 179.74 210.173ZM113.587 253.014C116.291 251.494 118.584 249.352 120.937 246.662L123.647 253.014H113.587ZM426.828 73.2697C379.618 26.0469 316.85 0.019839 250.063 1.13404e-05C183.302 -0.0198163 120.521 25.961 73.2839 73.164C26.034 120.374 0.0132236 183.161 5.03637e-06 249.947C-0.0132136 316.74 25.9944 379.547 73.2244 426.79C120.421 474.006 183.177 500 249.904 500C316.678 500.026 379.479 474.046 426.703 426.836C473.959 379.626 499.98 316.852 500 250.059C500.013 183.287 474.025 120.506 426.828 73.2697Z" fill="#ED2D2F"/>
<path fill-rule="evenodd" clip-rule="evenodd" d="M366.729 279.669C366.729 296.952 378.249 306.562 388.421 315.041C396.92 322.126 404.263 328.246 404.263 337.486C404.263 343.157 400.694 346.409 394.482 346.409C388.712 346.409 385.03 340.797 384.389 331.022L384.323 330.031L364.865 332.807L364.905 333.646C365.645 348.94 374.806 364.379 393.589 364.379C412.175 364.379 423.708 353.441 423.708 335.84C423.708 319.119 411.831 309.02 401.368 300.118C393.206 293.178 386.154 287.183 386.154 279.497C386.154 273.264 389.115 269.834 394.481 269.834C396.887 269.834 402.571 270.912 403.391 280.905L403.463 281.856L422.895 279.702L422.809 278.79C421.024 262.201 410.859 251.89 396.259 251.89C377.489 251.89 366.729 262.022 366.729 279.669Z" fill="white"/>
<path fill-rule="evenodd" clip-rule="evenodd" d="M339.764 252.968H320.365V362.423H340.689V252.968H339.764Z" fill="white"/>
<path fill-rule="evenodd" clip-rule="evenodd" d="M252.111 252.967L231.939 362.422H251.418L255.027 338.59H273.678L277.354 362.422H296.738L276.586 252.967H275.818H252.111ZM264.379 277.389L271.186 322.205H257.564L264.371 277.395L264.379 277.389Z" fill="white"/>
<path fill-rule="evenodd" clip-rule="evenodd" d="M153.361 252.967V362.422H173.719V318.32C176.561 318.281 179.529 318.149 181.664 317.924L194.75 362.43H215.496L199.688 313.23C205.689 310.236 212.455 303.018 212.455 285.643C212.455 263.052 202.509 252.967 180.209 252.967H154.287H153.361ZM173.719 270.006H179.336C189.131 270.006 192.113 273.66 192.113 285.643C192.113 297.599 189.131 301.24 179.336 301.24H173.719V270.006Z" fill="white"/>
<path fill-rule="evenodd" clip-rule="evenodd" d="M132.126 252.968H79.6152V362.423H99.9719V314.75H124.704V296.78H99.9719V270.905H133.058V252.968H132.126Z" fill="white"/>
</g>
<defs>
<clipPath id="clip0_293_946">
<rect width="500" height="500" fill="white"/>
</clipPath>
</defs>
</svg>
