<svg width="475" height="85" viewBox="0 0 475 85" fill="none" xmlns="http://www.w3.org/2000/svg">
<g clip-path="url(#clip0_352_571)">
<path d="M412.2 41.2099C411.98 42.1099 411.77 43.0399 411.57 43.9799C411.52 44.2099 411.3 44.32 411.08 44.2C410.06 43.7 408.98 43.1799 407.82 42.6199C407.57 42.5099 407.57 42.2999 407.82 42.1899C409.08 41.5899 410.42 41.1499 411.8 40.8899C412.08 40.8399 412.25 40.98 412.19 41.2M406.03 39.06C405.81 39.96 405.6 40.89 405.41 41.83C405.35 42.06 405.14 42.17 404.93 42.06C403.9 41.56 402.82 41.0299 401.67 40.4799C401.42 40.3599 401.42 40.16 401.67 40.04C402.92 39.43 404.26 38.99 405.65 38.74C405.92 38.69 406.1 38.8299 406.04 39.0499M404.1 47.7C404.05 47.93 403.84 48.03 403.62 47.93C402.6 47.43 401.52 46.8999 400.37 46.3499C400.12 46.2299 400.12 46.03 400.37 45.91C401.63 45.3 402.97 44.8599 404.35 44.5999C404.63 44.5499 404.81 44.6999 404.75 44.9199C404.52 45.8199 404.32 46.7499 404.11 47.6899M399.56 38C399.34 38.9 399.13 39.82 398.93 40.77C398.88 41 398.67 41.11 398.45 41C397.43 40.49 396.35 39.9699 395.2 39.4199C394.94 39.2999 394.94 39.0999 395.19 38.9799C396.45 38.3699 397.79 37.9299 399.17 37.6699C399.44 37.6299 399.62 37.77 399.56 37.99M398.26 43.7C398.04 44.6 397.83 45.52 397.63 46.47C397.58 46.7 397.37 46.81 397.15 46.7C396.13 46.2 395.05 45.6699 393.89 45.1199C393.64 44.9999 393.64 44.8 393.89 44.68C395.15 44.08 396.49 43.64 397.87 43.38C398.14 43.33 398.32 43.48 398.26 43.7ZM396.97 49.5299C396.74 50.4299 396.53 51.3499 396.34 52.2999C396.29 52.5299 396.08 52.6399 395.86 52.5299C394.84 52.0299 393.76 51.5 392.61 50.95C392.36 50.83 392.36 50.6299 392.61 50.5099C393.87 49.8999 395.21 49.4599 396.59 49.2099C396.86 49.1599 397.05 49.3099 396.99 49.5299M392.21 40.63C392.17 40.86 391.95 40.97 391.73 40.86C390.7 40.35 389.63 39.8299 388.47 39.2799C388.22 39.1599 388.21 38.97 388.47 38.84C389.73 38.23 391.07 37.79 392.45 37.54C392.72 37.49 392.9 37.63 392.84 37.86C392.61 38.76 392.41 39.6799 392.2 40.6199M391.55 43.52C391.33 44.43 391.12 45.34 390.92 46.29C390.86 46.51 390.65 46.6199 390.43 46.5099C389.41 46.0099 388.33 45.4799 387.18 44.9399C386.93 44.8199 386.93 44.62 387.18 44.5C388.44 43.89 389.78 43.4499 391.16 43.1899C391.44 43.1399 391.62 43.2899 391.56 43.5099M390.3 49.27C390.08 50.17 389.87 51.09 389.67 52.04C389.62 52.27 389.4 52.37 389.19 52.27C388.17 51.77 387.09 51.24 385.93 50.7C385.68 50.58 385.68 50.38 385.93 50.27C387.19 49.66 388.52 49.2199 389.91 48.9599C390.18 48.9099 390.36 49.0599 390.3 49.2799M385.02 41.41C383.99 40.92 382.91 40.38 381.76 39.84C381.52 39.72 381.51 39.52 381.76 39.4C383.02 38.8 384.36 38.3599 385.75 38.0999C386.02 38.0499 386.2 38.1999 386.14 38.4199C385.92 39.3199 385.7 40.2499 385.51 41.1899C385.46 41.4099 385.25 41.52 385.03 41.41M384.82 44.1699C384.6 45.0699 384.38 45.9899 384.19 46.9399C384.14 47.1699 383.92 47.2799 383.71 47.1699C382.68 46.6699 381.61 46.1399 380.45 45.5999C380.2 45.4799 380.19 45.28 380.45 45.16C381.71 44.55 383.05 44.1099 384.43 43.8499C384.7 43.8099 384.88 43.9499 384.82 44.1699ZM383.56 49.97C383.34 50.87 383.13 51.79 382.93 52.74C382.88 52.97 382.67 53.07 382.45 52.97C381.42 52.47 380.35 51.9399 379.19 51.3899C378.94 51.2699 378.94 51.07 379.18 50.95C380.45 50.34 381.78 49.9 383.17 49.65C383.44 49.6 383.62 49.75 383.56 49.97ZM378.17 42.56C377.14 42.06 376.06 41.5299 374.92 40.9799C374.67 40.8699 374.66 40.6699 374.92 40.5499C376.18 39.9399 377.52 39.51 378.9 39.25C379.17 39.2 379.35 39.35 379.3 39.57C379.069 40.4884 378.859 41.412 378.67 42.34C378.62 42.58 378.4 42.68 378.19 42.57M377.27 48.4C377.22 48.63 377.01 48.73 376.79 48.63C375.77 48.13 374.68 47.5999 373.54 47.0499C373.3 46.9399 373.28 46.7399 373.54 46.6199C374.8 46.0099 376.14 45.57 377.52 45.32C377.79 45.27 377.98 45.4099 377.92 45.6399C377.7 46.5399 377.48 47.47 377.28 48.41M375.97 54.2C375.92 54.43 375.71 54.53 375.49 54.43C374.47 53.93 373.39 53.3999 372.24 52.8499C371.99 52.7399 371.98 52.53 372.24 52.41C373.5 51.8 374.84 51.36 376.22 51.11C376.49 51.06 376.67 51.21 376.62 51.43C376.39 52.33 376.18 53.25 375.98 54.2M371.9 43.88C371.85 44.11 371.64 44.22 371.42 44.11C370.39 43.61 369.32 43.0899 368.16 42.5299C367.91 42.4199 367.9 42.2099 368.16 42.0999C369.42 41.4899 370.76 41.0599 372.14 40.7999C372.42 40.7499 372.59 40.8999 372.54 41.1199C372.32 42.0199 372.1 42.94 371.91 43.88M371.1 47.4399C370.88 48.3399 370.66 49.2599 370.47 50.2099C370.42 50.4299 370.2 50.55 369.98 50.43C368.96 49.93 367.88 49.4 366.73 48.86C366.48 48.74 366.48 48.5399 366.73 48.4199C367.99 47.8099 369.33 47.3799 370.71 47.1199C370.98 47.0699 371.17 47.2199 371.11 47.4399M369.79 53.43C369.57 54.33 369.36 55.2499 369.16 56.1899C369.11 56.4199 368.9 56.5299 368.68 56.4199C367.66 55.9199 366.58 55.39 365.43 54.84C365.18 54.73 365.18 54.53 365.43 54.41C366.69 53.8 368.03 53.36 369.42 53.11C369.69 53.06 369.87 53.21 369.81 53.43M364.67 45.99C363.64 45.49 362.56 44.9599 361.41 44.4199C361.16 44.2999 361.16 44.0999 361.41 43.9799C362.67 43.3799 364.01 42.9299 365.39 42.6699C365.67 42.6299 365.84 42.77 365.79 42.99C365.56 43.89 365.35 44.8199 365.16 45.7599C365.11 45.9899 364.9 46.1 364.68 45.99M364.39 49.09C364.17 49.99 363.95 50.92 363.76 51.86C363.71 52.09 363.5 52.2 363.28 52.09C362.26 51.59 361.18 51.0599 360.03 50.5099C359.78 50.3999 359.77 50.2 360.03 50.07C361.29 49.47 362.63 49.02 364.01 48.77C364.29 48.72 364.47 48.87 364.41 49.09M358.51 46.24C358.46 46.47 358.25 46.57 358.03 46.47C357.01 45.96 355.93 45.4399 354.77 44.8899C354.52 44.7699 354.52 44.57 354.77 44.45C356.03 43.84 357.37 43.4 358.75 43.15C359.02 43.09 359.2 43.2399 359.14 43.4599C358.91 44.3699 358.71 45.2899 358.51 46.2299M357.2 52.0499C357.15 52.2799 356.93 52.3899 356.71 52.2799C355.69 51.7799 354.61 51.25 353.46 50.7C353.21 50.58 353.2 50.3799 353.46 50.2599C354.72 49.6599 356.06 49.2199 357.44 48.9599C357.71 48.9099 357.89 49.0599 357.84 49.2799C357.61 50.1799 357.4 51.0999 357.2 52.0499ZM350.94 40.8499C350.7 40.7399 350.69 40.5299 350.94 40.4199C352.2 39.8099 353.54 39.37 354.92 39.11C355.19 39.06 355.37 39.21 355.32 39.43C355.1 40.33 354.88 41.26 354.69 42.2C354.64 42.43 354.43 42.5299 354.21 42.4199C353.19 41.9199 352.11 41.3899 350.95 40.8499M351.29 48.99C351.24 49.22 351.03 49.33 350.81 49.22C349.79 48.72 348.71 48.19 347.55 47.65C347.31 47.53 347.3 47.3299 347.55 47.2099C348.81 46.5999 350.15 46.16 351.53 45.91C351.81 45.85 351.99 46 351.93 46.22C351.7 47.13 351.49 48.05 351.29 48.99ZM344.22 42.34C343.97 42.22 343.96 42.02 344.22 41.9C345.48 41.29 346.82 40.85 348.2 40.59C348.47 40.54 348.65 40.69 348.6 40.91C348.37 41.81 348.16 42.74 347.96 43.68C347.91 43.91 347.7 44.02 347.48 43.91C346.46 43.41 345.37 42.88 344.23 42.34M343.51 36.38C344.777 35.7733 346.118 35.3362 347.5 35.08C347.77 35.02 347.95 35.1699 347.89 35.3899C347.66 36.2899 347.45 37.22 347.26 38.16C347.21 38.39 346.99 38.4999 346.78 38.3899C345.75 37.8899 344.68 37.36 343.52 36.82C343.27 36.71 343.27 36.51 343.52 36.38M345.07 30.91C346.33 30.3 347.67 29.87 349.05 29.61C349.32 29.56 349.5 29.7 349.45 29.92C349.22 30.82 349.01 31.7499 348.82 32.6899C348.77 32.9199 348.55 33.0299 348.33 32.9199C347.31 32.4199 346.23 31.89 345.08 31.34C344.84 31.23 344.83 31.02 345.08 30.91M349.21 26.16C350.46 25.55 351.8 25.11 353.19 24.86C353.46 24.81 353.64 24.96 353.58 25.18C353.36 26.08 353.15 27 352.95 27.95C352.9 28.18 352.68 28.29 352.46 28.18C351.44 27.68 350.36 27.15 349.21 26.6C348.96 26.48 348.96 26.28 349.21 26.17M354.68 34.04C354.45 34.94 354.24 35.86 354.04 36.81C353.99 37.04 353.78 37.16 353.56 37.04C352.54 36.54 351.46 36.0099 350.3 35.4599C350.06 35.3499 350.05 35.15 350.3 35.02C351.56 34.41 352.91 33.98 354.28 33.72C354.55 33.67 354.73 33.8099 354.67 34.0299M357.2 28.79C357.48 28.74 357.66 28.88 357.6 29.11C357.38 30.01 357.17 30.9299 356.97 31.8799C356.93 32.1099 356.71 32.22 356.49 32.11C355.47 31.6 354.38 31.08 353.23 30.53C352.98 30.42 352.97 30.21 353.23 30.09C354.49 29.48 355.82 29.04 357.21 28.79M354.61 22.53C355.87 21.92 357.2 21.4799 358.59 21.2299C358.86 21.1799 359.04 21.3299 358.98 21.5499C358.76 22.4499 358.54 23.37 358.35 24.32C358.3 24.55 358.09 24.6599 357.87 24.5499C356.84 24.0499 355.77 23.5199 354.61 22.9799C354.36 22.8699 354.35 22.66 354.61 22.54M360.64 19.69C361.9 19.08 363.24 18.6499 364.62 18.3799C364.89 18.3299 365.07 18.48 365.01 18.7C364.78 19.6 364.57 20.5199 364.38 21.4699C364.33 21.6999 364.12 21.81 363.9 21.7C362.87 21.2 361.8 20.6699 360.64 20.1299C360.39 20.0199 360.38 19.81 360.64 19.69ZM436.86 36.56C438.7 36.56 439.83 37.97 440.03 38.61C440.03 38.61 437.27 39.2199 436.07 39.4799C435.28 39.6499 434.77 39.3099 434.69 38.6899C434.59 37.9999 435.33 36.55 436.86 36.56ZM443.68 36.77C443.96 36.05 444.56 35.5499 445.17 35.5499C446.27 35.5499 446.79 36.75 446.79 37.11L444.14 37.7C443.4 37.84 443.42 37.4399 443.68 36.7599M473.42 59.1399C472.28 58.4199 471.29 58.33 470.25 58.02C468.84 57.6 468.39 55.8699 467.87 55.6699C466.82 55.2699 465.85 56.87 465.21 56.66C464.57 56.46 464.31 54.34 463.79 54.15C462.78 53.77 461.68 55.38 461.04 55.18C460.4 54.98 460.06 52.89 459.54 52.7C458.48 52.31 457.4 53.9899 456.76 53.7799C456.12 53.5799 455.95 51.4099 455.42 51.2099C454.29 50.7799 453.26 52.5 452.26 52.34C451.63 52.24 450.24 52.01 448.42 50.79C447.9 50.44 446.82 49.57 446.73 49.54C446.55 49.47 446.08 49.35 446.19 50.29C446.45 52.49 450.25 54.08 454.61 55.34C458.96 56.59 463.38 57.8099 466.01 59.0299C467.64 59.7799 468.34 60.6799 467.75 61.5499C467.3 62.2199 466.18 62.2699 464.96 61.6899C463.66 61.0699 463.52 60.0399 462.71 59.8499C461.7 59.6099 460.43 61.52 459.63 61.34C458.61 61.1 458.49 58.9099 457.59 58.6699C456.39 58.3499 455.06 60.1999 454.27 60.0299C453.48 59.8699 453.18 57.52 452.43 57.33C451.17 57 449.89 58.9499 449.09 58.7799C448.3 58.6199 447.86 56.31 447.19 56.04C445.93 55.53 444.26 57.4299 442.52 56.5099C436.89 52.7099 437.97 50.7499 433.67 49.4799C431.45 48.8299 428.68 49.62 427.06 49.79C423.25 50.19 423.4 46.8899 423.4 46.8899C424.5 47.1499 426.05 47.85 428.9 46.79C431.98 45.65 433.7 45.45 437.71 46.79C441.1 47.93 443.11 46.91 444.29 46.61C444.87 46.46 445.32 46.14 446.41 46.84C447.51 47.54 448.56 48.3099 449.1 48.0499C449.93 47.6399 449.63 45.42 451.07 44.95C451.72 44.73 453.51 46.52 454.29 46.22C455.07 45.92 454.83 43.5899 456.26 43.1199C456.92 42.8999 458.7 44.6899 459.48 44.3899C460.27 44.0799 460.02 41.7599 461.45 41.2799C462.11 41.0699 463.9 42.85 464.67 42.56C465.45 42.25 465.22 39.93 466.64 39.45C467.29 39.24 469.09 41.0299 469.86 40.7299C470.64 40.4199 470.53 39.83 471.16 38.25C471.28 37.94 471.51 37.6299 471.83 37.3699C472.7 36.6599 474.02 35.1299 473.24 33.4199C472.53 31.8699 471.08 31.92 467.88 32.58C465.19 33.13 448.5 36.81 448.5 36.81C445.89 31.99 444.13 35.1699 440.27 34.7099C437.82 34.4099 433.86 31.92 427.6 37.7C424.23 36.74 421.26 37.59 419.04 38.83C415.28 37.3 408.12 33.63 394.5 33.63C390.65 33.63 381.46 34.39 366.84 38.24C363.1 39.23 359.68 39.01 358.85 36.79C357.99 34.46 360.99 32.03 366.64 29.32C380.67 22.6 390.04 24.18 408.9 14.19C419.01 8.83995 419.67 2.55995 419.67 1.03995C419.67 -4.8995e-05 418.61 -0.350049 418 0.499951C414.6 5.24995 413.72 4.84995 412.67 3.79995C411.25 2.37995 410.3 4.62995 408.78 5.75995C407.62 6.61995 407.39 5.57995 406.46 4.97995C404.86 3.94995 403.52 6.99995 402.15 7.60995C400.56 8.31995 400.27 7.52995 399.73 6.96995C399.35 6.56995 398.66 6.57995 398.17 7.04995C394.95 10.11 394.48 9.75995 393.52 8.73995C392.81 7.97995 392.42 7.45995 390.34 9.55995C389.14 10.78 387.13 12.22 386.52 10.7C385.91 9.17995 385.38 8.28995 382.43 10.98C380.68 12.57 379.49 12.7 378.96 11.95C378.43 11.19 378.51 9.11995 375.75 11.3C373.27 13.25 372.03 14.42 371.21 12.54C370.42 10.72 368.6 12.25 367.22 13.57C366.49 14.27 365.29 15.91 364.32 14.24C363.35 12.58 361.8 14.3 359.82 16.4C358.7 17.5799 357.95 17.06 356.85 16.28C355.58 15.37 354.23 18.63 352.38 20.58C352.03 20.9 351.53 21.14 350.41 20.36C348.97 19.37 346.69 24.43 346.04 25.67C344.98 27.67 343.81 25.15 342.57 26.95C339.69 31.17 336.6 35.86 335.73 44.15C334.68 54.08 338.36 62.16 342.1 65.14C342.1 65.14 341.65 66.25 341.12 67.65C340.08 70.45 339.65 74.08 340.98 76.63C342.28 79.09 345.31 83.18 346.44 79.32C346.99 77.44 347.5 77.54 349.31 78.82C352.04 80.74 351.37 77.23 351.92 76.2C352.3 75.47 352.78 75.19 355.03 76.67C356.33 77.51 356.74 76.37 357.12 74.77C358.31 69.82 355.97 68.6 353.66 68.14C351.98 67.8 350.21 68.08 350.21 68.08C353.89 62.47 354.35 59.4 350.21 56.57C350.83 56.26 351.33 56.43 351.86 56.65C352.88 57.08 353.73 57.86 354.27 58.81C354.84 59.82 355.78 62.07 353.88 66.06C354.67 66.06 357.72 66.25 359.1 69.38C360.91 69.96 372.58 70.89 377.68 70.07C379.53 69.77 380.37 68.1 382.22 66.37C384.24 64.49 386.58 62.4499 388.67 63.9799C385.11 65.4399 382.6 68.21 382.6 71.73C382.6 74.37 383.69 75.43 385.57 77C387.28 78.42 387.81 80.67 388.43 82.42C389.23 84.65 390.91 84.72 391.28 82.6C391.79 79.68 392.68 80.22 393.81 81.47C395.19 82.99 396.26 82.75 396.26 80.57C396.26 78.51 396.88 77.49 399.19 79.87C400.13 80.84 401.25 80.8 401.23 78.69C401.21 76.12 402.36 76.36 403.8 77.47C404.3 77.85 404.65 78.13 404.92 78.12C406.06 78.06 406.8 75.85 405.93 74.11C405.5 73.24 404.86 71.93 398.97 70.72C397.04 70.32 397.37 68.98 397.37 68.98C411.75 69.68 423.93 67.87 431.94 63C441.79 65.37 456.19 65.6 460.92 65.54C465.64 65.48 469.26 65.2699 472.22 63.8499C475.34 62.3499 474.87 60.0699 473.43 59.1699" fill="white"/>
<path d="M44.9 51.6299L42.6 51.1799C42.24 51.0899 42.15 51.1799 42.06 51.4499C38.2 63.4699 32.64 67.8599 23.86 67.8599C20.99 67.8599 17.67 67.2299 15.25 66.0699V19.5199C15.25 12.4399 17.94 12.0799 21.44 12.0799H21.53C21.8 12.0799 21.98 11.8999 21.98 11.6299V10.0199C21.98 9.7499 21.8 9.5699 21.53 9.5699H0.45C0.18 9.5699 0 9.7499 0 10.0199V11.6299C0 11.8999 0.18 12.0799 0.45 12.0799H0.54C4.04 12.0799 6.73 12.4399 6.73 19.5199V60.7699C6.73 67.8599 4.04 68.2099 0.54 68.2099H0.45C0.18 68.2099 0 68.3899 0 68.6599V70.2699C0 70.5399 0.18 70.7199 0.45 70.7199H39.29C39.47 70.7199 39.68 70.5499 39.74 70.3599L45.26 52.1599C45.35 51.7999 45.26 51.7099 44.9 51.6199M135.91 53.4199L134.03 52.6999C133.85 52.6099 133.58 52.6999 133.49 52.8799C129.81 60.4099 124.79 66.4199 116.27 66.4199C104.34 66.4199 99.59 53.9499 99.59 40.0599C99.59 34.7699 100.13 12.2599 115.37 12.2599C124.96 12.2599 128.19 21.4999 130.17 30.7299C130.26 30.9999 130.44 31.0899 130.71 31.0899L132.68 30.8199C133.04 30.7299 133.13 30.5499 133.13 30.2799L131.43 11.8999C131.43 11.7199 131.25 11.4499 130.98 11.4499C129.81 11.5399 127.93 11.5399 125.96 10.9099C122.82 9.8299 119.5 8.3999 115.47 8.3999C99.96 8.3999 90.81 22.4799 90.81 38.9799C90.81 57.8999 99.6 71.8899 114.21 71.8899C123.54 71.8899 131.43 67.2299 136.18 53.9499C136.27 53.6799 136.09 53.4999 135.91 53.4099M162.15 68.7499C152.55 68.7499 147.8 56.2899 147.8 40.3299C147.8 24.3699 152.55 11.3599 162.15 11.3599C171.75 11.3599 176.68 24.3599 176.68 40.3299C176.68 56.2999 171.84 68.7499 162.15 68.7499ZM162.24 8.3999C147.53 8.3999 138.57 22.7499 138.57 40.3299C138.57 57.9099 147.54 71.8999 162.24 71.8999C176.94 71.8999 185.82 57.9099 185.82 40.3299C185.82 22.7499 176.85 8.3999 162.24 8.3999ZM268.66 9.5699H229.65C229.47 9.5699 229.2 9.8399 229.2 10.0199L228.04 26.2499C228.04 26.5199 228.22 26.7899 228.49 26.7899L230.37 26.9699C230.64 26.9699 230.82 26.8799 230.91 26.6099C231.98 20.6899 233.06 17.7299 234.94 15.7599C236.91 13.6999 239.78 12.5299 244.89 12.5299V60.7699C244.89 67.8499 242.2 68.2099 238.7 68.2099H238.61C238.34 68.2099 238.16 68.3899 238.16 68.6599V70.2699C238.16 70.5399 238.34 70.7199 238.61 70.7199H259.68C259.95 70.7199 260.13 70.5399 260.13 70.2699V68.6599C260.13 68.3899 259.95 68.2099 259.68 68.2099H259.59C256.09 68.2099 253.4 67.8499 253.4 60.7699V12.5299C258.51 12.5299 261.38 13.6999 263.35 15.7599C265.23 17.7299 266.31 20.6899 267.39 26.6099C267.48 26.8799 267.66 26.9699 267.93 26.9699L269.81 26.7899C270.08 26.7899 270.26 26.5199 270.26 26.2499L269.09 10.0199C269.09 9.8399 268.82 9.5699 268.64 9.5699M317.75 51.9299L315.96 51.4799C315.6 51.3899 315.51 51.4799 315.42 51.7499C311.92 62.1499 306.63 67.8599 297.84 67.8599C295.24 67.8599 291.83 67.2299 289.14 66.0699V40.1599H292.46C299.37 40.1599 301.43 43.9299 301.52 50.3799C301.52 50.6499 301.7 50.8299 301.97 50.8299H303.67C303.94 50.8299 304.12 50.6499 304.12 50.3799V27.3399C304.12 27.0699 303.94 26.8899 303.67 26.8899H301.97C301.7 26.8899 301.52 27.0699 301.52 27.3399C301.43 33.7099 299.37 37.1099 292.46 37.1099H289.14V12.6199H298.02C307.26 12.6199 309.77 16.8399 312.1 26.6099C312.19 26.8799 312.28 26.9699 312.55 26.9699L314.35 26.6999C314.62 26.6999 314.71 26.5199 314.71 26.2499L313.63 10.0199C313.63 9.8399 313.36 9.5699 313.18 9.5699H274.35C274.08 9.5699 273.9 9.7499 273.9 10.0199V11.6299C273.9 11.8999 274.08 12.0799 274.35 12.0799H274.44C277.94 12.0799 280.63 12.4399 280.63 19.5199V60.7699C280.63 67.8499 277.94 68.2099 274.44 68.2099H274.35C274.08 68.2099 273.9 68.3899 273.9 68.6599V70.2699C273.9 70.5399 274.08 70.7199 274.35 70.7199H313.54C313.72 70.7199 313.99 70.5399 313.99 70.3599L318.11 52.4599C318.2 52.0999 318.11 52.0099 317.75 51.9199M211.21 34.6799C203.86 30.9099 196.5 26.8799 196.5 20.4199C196.5 15.4899 200.54 11.8999 205.92 11.8999C215.69 11.8999 217.85 18.4499 220.45 26.6999C220.54 26.8799 220.66 26.9699 220.99 26.9699L222.92 26.7899C223.21 26.7399 223.28 26.5199 223.28 26.3399L221.72 10.3999C221.7 10.0999 221.51 9.8599 221.18 9.9299C220.65 10.0499 219.72 10.2899 218.44 10.2899C214.95 10.2899 213.19 8.4099 206.37 8.4099C197.49 8.4099 190.14 14.1499 190.14 23.5599C190.14 32.9699 197.94 38.2699 206.28 42.7499C213.63 46.6899 219.82 50.5499 219.82 57.4599C219.82 67.0599 211.93 68.1299 209.15 68.1299C198.93 67.9499 195.34 60.3299 192.02 50.2899C191.93 50.0199 191.75 49.9299 191.39 50.0199L189.51 50.3799C189.24 50.4699 189.15 50.6499 189.15 50.9199L191.84 70.3799C191.84 70.6499 192.2 70.9199 192.56 70.7399C194.08 70.1999 195.34 69.9299 196.68 69.9299C200.63 69.9299 202.15 71.9899 209.41 71.9899C218.11 71.9899 227.07 66.2499 227.07 55.2199C227.07 45.5399 220.53 39.6199 211.2 34.6899M57.78 46.9199L65.41 23.8299L74.35 46.9199H57.79H57.78ZM96.13 68.2199C94.01 67.8799 91.1 66.0399 88.12 58.8899L68.86 9.8399C68.77 9.6599 68.68 9.5699 68.5 9.5699H60.42C59.82 9.5699 59.62 9.9599 59.95 10.4499C60.29 10.9499 60.71 11.6999 61.12 12.7699C61.16 12.8699 62.45 16.2199 62.45 16.2199L62.49 16.3199C63.08 17.8399 63.12 19.5299 62.61 21.0799L50.09 58.8799C47.74 65.2799 46.15 67.9799 42.92 68.2099C42.56 68.2099 42.38 68.4799 42.38 68.7499V70.1899C42.38 70.4899 42.62 70.7299 42.92 70.7299H57.54C57.84 70.7299 58.08 70.4899 58.08 70.1899V68.7499C58.08 68.4799 57.9 68.2099 57.54 68.2099C52.43 68.0299 51.71 65.7899 53.24 60.6799L56.66 50.3199H75.67L79.61 60.4999C81.89 65.8799 78.89 67.9399 74.59 68.2099C74.32 68.2099 74.14 68.4799 74.14 68.7499V70.1899C74.14 70.4899 74.38 70.7299 74.68 70.7299H96.05C96.35 70.7299 96.59 70.4899 96.59 70.1899V68.7499C96.59 68.4799 96.41 68.2099 96.14 68.2099" fill="white"/>
</g>
<defs>
<clipPath id="clip0_352_571">
<rect width="474.54" height="84.11" fill="white"/>
</clipPath>
</defs>
</svg>
