<svg preserveAspectRatio="none" width="100%" height="100%" overflow="visible" style="display: block;" viewBox="0 0 44.0569 29.1099" fill="none" xmlns="http://www.w3.org/2000/svg">
<g id="Group 24">
<path id="Vector" d="M7.51987 22.9367L0.000136981 22.9367L0.000136978 22.2889C1.22279 22.2889 1.34533 21.9798 1.34533 20.4692L1.34533 11.7978C1.34533 10.2858 1.22279 9.97103 0.000136921 9.97103L0.000136918 9.33307L6.17746 9.33307L6.17746 11.6783C6.78879 10.3518 8.37907 9.02533 10.305 9.02533C13.1193 9.02533 14.6483 11.0305 14.6483 13.4995L14.6483 20.4734C14.6483 21.984 14.7709 22.2931 15.9935 22.2931L15.9935 22.9409L8.47377 22.9409L8.47377 22.2889C9.69642 22.2889 9.81896 21.9798 9.81896 20.4692L9.81896 14.0812C9.81896 12.0142 8.99319 11.2118 7.8318 11.2118C7.18984 11.2118 6.54649 11.6123 6.18025 12.4456L6.18025 20.4692C6.18025 21.9798 6.33343 22.2889 7.52544 22.2889L7.51987 22.9367Z" fill="var(--fill-0, white)"/>
<path id="Vector_2" d="M17.9504 9.97825L17.9504 9.33468L24.1277 9.33468L24.1277 20.475C24.1277 21.9856 24.2795 22.2947 25.4729 22.2947L25.4729 22.9425L17.9531 22.9425L17.9531 22.2905C19.1758 22.2905 19.2983 21.9814 19.2983 20.4708L19.2983 11.7994C19.2955 10.2874 19.173 9.97825 17.9504 9.97825Z" fill="var(--fill-0, white)"/>
<path id="Vector_3" d="M28.5878 11.7994C28.5878 10.2874 28.4346 9.97263 27.2426 9.97263L27.2426 9.33468L33.4268 9.33468L33.4268 23.4638C33.4268 27.4138 30.7963 29.1099 27.5851 29.1099C25.9336 29.1099 24.8335 28.6785 24.2528 28.1853L24.5313 27.5979C25.0194 27.954 25.61 28.1382 26.2121 28.1221C27.6186 28.1221 28.5975 27.1974 28.5975 25.0686L28.5878 11.7994Z" fill="var(--fill-0, white)"/>
<path id="Vector_4" d="M36.5343 9.97825L36.5343 9.33468L42.7103 9.33468L42.7103 20.475C42.7103 21.9856 42.8634 22.2947 44.0569 22.2947L44.0569 22.9425L36.5371 22.9425L36.5371 22.2905C37.7598 22.2905 37.8823 21.9814 37.8823 20.4708L37.8823 11.7994C37.8823 10.2874 37.757 9.97825 36.5343 9.97825Z" fill="var(--fill-0, white)"/>
<path id="Vector_5" d="M21.7002 5.23865C23.1338 5.23865 24.2959 4.06596 24.2959 2.61938C24.2959 1.1728 23.1338 0.000112397 21.7002 0.000112391C20.2666 0.000112384 19.1045 1.1728 19.1045 2.61938C19.1045 4.06596 20.2666 5.23865 21.7002 5.23865Z" fill="var(--fill-0, white)"/>
<path id="Vector_6" d="M30.9984 5.23865C32.432 5.23865 33.5941 4.06596 33.5941 2.61938C33.5941 1.1728 32.432 0.000112397 30.9984 0.000112391C29.5649 0.000112384 28.4027 1.1728 28.4027 2.61938C28.4027 4.06596 29.5649 5.23865 30.9984 5.23865Z" fill="var(--fill-0, white)"/>
<path id="Vector_7" d="M40.2916 5.23865C41.7252 5.23865 42.8873 4.06596 42.8873 2.61938C42.8873 1.1728 41.7252 0.000112397 40.2916 0.000112391C38.858 0.000112384 37.6959 1.1728 37.6959 2.61938C37.6959 4.06596 38.858 5.23865 40.2916 5.23865Z" fill="var(--fill-0, white)"/>
</g>
</svg>
