<?xml version="1.0" encoding="UTF-8"?>
<svg id="Calque_1" xmlns="http://www.w3.org/2000/svg" version="1.1" viewBox="0 0 451 451">
  <!-- Generator: Adobe Illustrator 30.5.0, SVG Export Plug-In . SVG Version: 2.1.4 Build 167)  -->
  <rect x="308" y="253" width="11" height="11"/>
  <rect x="22" y="22" width="33" height="33"/>
  <polygon points="187 11 198 11 209 11 209 0 198 0 187 0 176 0 165 0 165 11 176 11 187 11"/>
  <rect x="319" y="242" width="11" height="11"/>
  <polygon points="88 440 88 451 99 451 99 440 99 429 88 429 88 440"/>
  <rect x="286" y="275" width="11" height="11"/>
  <path d="M0,451h77v-77H0v77ZM11,385h55v55H11v-55Z"/>
  <rect x="44" y="341" width="11" height="11"/>
  <polygon points="22 341 22 330 11 330 11 319 0 319 0 330 0 341 11 341 22 341"/>
  <rect x="275" y="154" width="11" height="11"/>
  <rect x="22" y="341" width="11" height="11"/>
  <rect x="66" y="220" width="11" height="11"/>
  <rect x="33" y="352" width="11" height="11"/>
  <rect x="33" y="330" width="11" height="11"/>
  <rect x="22" y="396" width="33" height="33"/>
  <rect x="286" y="176" width="11" height="11"/>
  <path d="M77,0H0v77h77V0ZM66,66H11V11h55v55Z"/>
  <rect x="11" y="352" width="11" height="11"/>
  <polygon points="319 374 308 374 308 385 308 396 319 396 319 385 319 374"/>
  <rect x="297" y="22" width="11" height="11"/>
  <polygon points="11 242 11 253 22 253 22 264 11 264 11 253 0 253 0 264 0 275 11 275 11 286 0 286 0 297 11 297 22 297 22 286 33 286 33 275 33 264 33 253 33 242 22 242 11 242"/>
  <rect x="231" y="22" width="11" height="11"/>
  <rect x="341" y="44" width="11" height="11"/>
  <polygon points="253 0 242 0 242 11 253 11 264 11 264 0 253 0"/>
  <polygon points="440 176 440 165 429 165 418 165 418 176 429 176 440 176"/>
  <rect x="429" y="88" width="11" height="11"/>
  <polygon points="363 77 363 66 352 66 352 77 352 88 363 88 363 77"/>
  <rect x="110" y="66" width="11" height="11"/>
  <polygon points="132 22 132 33 143 33 143 22 154 22 154 11 143 11 143 0 132 0 132 11 121 11 121 0 110 0 110 11 110 22 99 22 99 33 110 33 121 33 121 22 132 22"/>
  <rect x="198" y="22" width="11" height="11"/>
  <rect x="88" y="11" width="11" height="11"/>
  <rect x="418" y="187" width="11" height="11"/>
  <polygon points="0 143 0 154 11 154 11 143 11 132 0 132 0 143"/>
  <rect x="242" y="88" width="11" height="11"/>
  <polygon points="231 0 220 0 220 11 220 22 231 22 231 11 231 0"/>
  <rect x="209" y="33" width="11" height="11"/>
  <rect x="253" y="429" width="11" height="11"/>
  <rect x="440" y="319" width="11" height="11"/>
  <rect x="352" y="319" width="11" height="11"/>
  <rect x="330" y="363" width="11" height="11"/>
  <rect x="330" y="385" width="11" height="11"/>
  <rect x="275" y="440" width="11" height="11"/>
  <polygon points="209 352 209 363 209 374 220 374 231 374 242 374 253 374 253 363 242 363 242 352 242 341 253 341 253 330 242 330 242 319 231 319 231 330 231 341 220 341 220 352 209 352"/>
  <rect x="66" y="88" width="11" height="11"/>
  <rect x="286" y="352" width="11" height="11"/>
  <polygon points="44 308 33 308 22 308 22 319 33 319 44 319 55 319 55 308 44 308"/>
  <rect x="66" y="352" width="11" height="11"/>
  <polygon points="154 429 143 429 143 440 132 440 121 440 121 451 132 451 143 451 154 451 154 440 165 440 165 429 154 429"/>
  <rect x="55" y="319" width="11" height="11"/>
  <rect x="319" y="396" width="11" height="11"/>
  <rect x="440" y="363" width="11" height="11"/>
  <rect x="165" y="440" width="11" height="11"/>
  <rect x="429" y="440" width="11" height="11"/>
  <polygon points="165 396 165 385 154 385 154 396 143 396 143 407 154 407 154 418 165 418 165 407 165 396"/>
  <polygon points="55 231 44 231 33 231 33 242 44 242 44 253 55 253 55 242 66 242 66 231 55 231"/>
  <polygon points="132 253 132 242 132 231 143 231 154 231 154 242 165 242 165 231 165 220 165 209 154 209 143 209 143 220 132 220 121 220 121 209 110 209 110 198 99 198 99 209 88 209 77 209 77 220 88 220 88 231 77 231 77 242 66 242 66 253 77 253 88 253 88 242 99 242 99 231 99 220 110 220 110 231 121 231 121 242 110 242 110 253 121 253 132 253"/>
  <polygon points="44 220 55 220 55 209 66 209 77 209 77 198 66 198 66 187 55 187 55 198 44 198 44 187 33 187 33 198 22 198 22 187 11 187 11 176 0 176 0 187 0 198 0 209 11 209 11 220 22 220 22 231 33 231 33 220 44 220"/>
  <rect x="44" y="176" width="11" height="11"/>
  <rect x="66" y="308" width="11" height="11"/>
  <polygon points="121 275 132 275 143 275 143 264 143 253 132 253 132 264 121 264 110 264 110 253 99 253 99 264 99 275 110 275 121 275"/>
  <polygon points="99 308 99 319 88 319 88 330 99 330 99 341 99 352 110 352 110 341 110 330 121 330 121 319 132 319 132 308 132 297 143 297 154 297 154 308 154 319 143 319 143 330 143 341 154 341 154 330 165 330 165 319 176 319 176 308 165 308 165 297 176 297 176 286 165 286 154 286 154 275 143 275 143 286 132 286 121 286 121 297 110 297 110 286 99 286 99 275 88 275 88 286 88 297 77 297 77 308 88 308 99 308"/>
  <path d="M66,165h33v11h-11v11h22v-55h-11v11h-11v11h-33v-11h22v-11h-22v-11h-11v-22h-22v-11H0v11h11v33h11v11h22v22h11v11h11v-11ZM33,121h-11v-11h11v11Z"/>
  <polygon points="66 286 66 275 77 275 88 275 88 264 77 264 66 264 55 264 55 275 44 275 44 286 55 286 55 297 66 297 77 297 77 286 66 286"/>
  <polygon points="88 330 77 330 66 330 66 341 77 341 77 352 88 352 88 341 88 330"/>
  <polygon points="77 121 77 110 66 110 66 99 55 99 55 110 55 121 66 121 77 121"/>
  <rect x="121" y="77" width="11" height="11"/>
  <polygon points="143 66 154 66 154 55 154 44 143 44 132 44 132 33 121 33 121 44 121 55 132 55 132 66 132 77 143 77 143 66"/>
  <rect x="154" y="33" width="11" height="11"/>
  <rect x="154" y="66" width="11" height="11"/>
  <polygon points="99 88 110 88 110 77 99 77 99 66 88 66 88 77 88 88 88 99 99 99 99 88"/>
  <rect x="77" y="99" width="11" height="11"/>
  <rect x="88" y="110" width="11" height="11"/>
  <rect x="440" y="198" width="11" height="11"/>
  <rect x="99" y="44" width="11" height="11"/>
  <polygon points="429 231 429 242 440 242 440 253 451 253 451 242 451 231 440 231 429 231"/>
  <rect x="22" y="165" width="11" height="11"/>
  <polygon points="143 352 132 352 132 341 121 341 121 352 110 352 110 363 99 363 99 352 88 352 88 363 88 374 99 374 110 374 110 385 99 385 99 396 99 407 110 407 121 407 121 418 132 418 132 407 132 396 121 396 121 385 121 374 132 374 132 385 143 385 143 374 143 363 154 363 154 352 143 352"/>
  <rect x="352" y="22" width="11" height="11"/>
  <rect x="396" y="22" width="33" height="33"/>
  <polygon points="176 44 165 44 165 55 176 55 176 66 176 77 176 88 187 88 187 77 187 66 198 66 198 55 187 55 187 44 187 33 187 22 176 22 165 22 165 33 176 33 176 44"/>
  <path d="M374,0v77h77V0h-77ZM440,66h-55V11h55v55Z"/>
  <rect x="440" y="143" width="11" height="11"/>
  <rect x="429" y="209" width="11" height="11"/>
  <polygon points="319 407 308 407 297 407 297 418 297 429 308 429 319 429 319 418 319 407"/>
  <rect x="253" y="396" width="11" height="11"/>
  <polygon points="286 396 286 385 297 385 297 374 286 374 275 374 264 374 253 374 253 385 264 385 264 396 275 396 275 407 275 418 286 418 286 407 297 407 297 396 286 396"/>
  <path d="M242,396h11v-11h-22v22h-11v-11h-11v-22h-11v-22h11v-11h-55v11h33v11h-33v11h33v11h-11v11h11v11h-11v11h-11v11h11v11h11v11h22v-11h11v11h11v-22h11v-11h11v-11h-11v-11ZM220,429h-22v-22h11v11h11v11Z"/>
  <rect x="418" y="242" width="11" height="11"/>
  <path d="M396,253h-11v22h-33v11h-11v22h-22v11h11v11h-11v11h11v11h11v-11h11v-11h-11v-11h11v-22h11v-11h11v11h-11v22h22v-33h33v11h-11v11h-11v44h-11v-22h-11v11h-11v11h-11v22h-11v11h11v11h-11v11h11v22h-11v-11h-11v11h-11v22h22v-11h11v11h11v-11h22v11h11v-22h-11v-11h22v33h11v-11h11v-11h-11v-11h11v11h22v-11h-11v-11h11v-22h-11v11h-11v-11h11v-11h-11v-11h-11v22h-11v-33h33v-11h-33v-11h11v-11h22v-11h-11v-33h-11v-22h-22ZM374,418h-11v-11h11v11ZM396,374v22h-33v-33h33v11ZM418,396v11h-11v-11h11ZM407,275h-11v-11h11v11Z"/>
  <rect x="374" y="374" width="11" height="11"/>
  <polygon points="440 286 440 297 440 308 451 308 451 297 451 286 451 275 451 264 440 264 429 264 429 275 440 275 440 286"/>
  <polygon points="220 77 220 88 231 88 231 77 231 66 231 55 231 44 220 44 220 55 209 55 209 66 220 66 220 77"/>
  <rect x="165" y="198" width="11" height="11"/>
  <rect x="143" y="242" width="11" height="11"/>
  <rect x="66" y="176" width="11" height="11"/>
  <rect x="77" y="187" width="11" height="11"/>
  <rect x="132" y="198" width="11" height="11"/>
  <rect x="308" y="319" width="11" height="11"/>
  <polygon points="297 341 297 330 297 319 297 308 297 297 286 297 275 297 264 297 264 286 253 286 253 297 242 297 231 297 220 297 220 286 209 286 209 275 209 264 220 264 220 253 231 253 231 242 220 242 220 231 209 231 209 220 198 220 198 231 187 231 187 242 198 242 209 242 209 253 198 253 187 253 176 253 176 242 165 242 165 253 154 253 154 264 154 275 165 275 165 264 176 264 176 275 176 286 187 286 187 275 198 275 198 286 187 286 187 297 176 297 176 308 187 308 187 319 176 319 176 330 187 330 198 330 198 319 209 319 209 330 209 341 220 341 220 330 220 319 220 308 231 308 242 308 253 308 264 308 264 319 275 319 286 319 286 330 275 330 275 341 264 341 264 352 264 363 275 363 275 352 286 352 286 341 297 341"/>
  <rect x="308" y="297" width="11" height="11"/>
  <polygon points="297 341 297 352 308 352 308 363 319 363 319 352 319 341 308 341 297 341"/>
  <polygon points="198 176 198 165 198 154 198 143 198 132 187 132 187 143 176 143 176 154 187 154 187 165 176 165 176 176 187 176 198 176"/>
  <rect x="242" y="275" width="11" height="11"/>
  <polygon points="231 275 242 275 242 264 242 253 231 253 231 264 231 275"/>
  <polygon points="121 143 132 143 143 143 143 154 132 154 121 154 121 165 121 176 132 176 132 165 143 165 143 176 132 176 132 187 143 187 143 198 154 198 154 187 165 187 176 187 176 176 165 176 154 176 154 165 165 165 165 154 154 154 154 143 154 132 154 121 154 110 165 110 165 99 165 88 154 88 143 88 143 99 132 99 121 99 121 110 132 110 132 121 143 121 143 132 132 132 132 121 121 121 110 121 110 132 121 132 121 143"/>
  <polygon points="275 264 264 264 253 264 253 275 264 275 275 275 286 275 286 264 286 253 275 253 275 264"/>
  <polygon points="242 253 253 253 264 253 264 242 253 242 253 231 264 231 264 220 253 220 253 209 242 209 242 220 231 220 231 231 231 242 242 242 242 253"/>
  <polygon points="330 275 330 264 319 264 319 275 308 275 308 286 319 286 319 297 330 297 330 286 341 286 341 275 330 275"/>
  <polygon points="176 121 165 121 165 132 165 143 176 143 176 132 176 121"/>
  <polygon points="220 143 220 154 231 154 231 165 220 165 220 154 209 154 209 165 209 176 209 187 220 187 231 187 231 198 220 198 220 209 231 209 242 209 242 198 253 198 253 209 264 209 275 209 275 198 264 198 264 187 253 187 253 176 242 176 242 165 253 165 253 154 242 154 242 143 231 143 220 143"/>
  <polygon points="253 55 253 44 264 44 275 44 275 33 275 22 275 11 264 11 264 22 253 22 253 33 242 33 242 44 242 55 242 66 242 77 253 77 253 66 253 55"/>
  <polygon points="198 88 198 99 198 110 187 110 176 110 176 121 187 121 198 121 209 121 209 132 220 132 231 132 242 132 242 143 253 143 253 132 253 121 242 121 231 121 231 110 220 110 220 99 220 88 209 88 209 77 209 66 198 66 198 77 198 88"/>
  <rect x="253" y="77" width="11" height="11"/>
  <polygon points="264 88 264 99 275 99 286 99 286 88 275 88 264 88"/>
  <rect x="264" y="66" width="11" height="11"/>
  <polygon points="319 33 330 33 330 22 341 22 341 11 352 11 363 11 363 0 352 0 341 0 330 0 319 0 319 11 308 11 308 22 319 22 319 33"/>
  <rect x="341" y="264" width="11" height="11"/>
  <polygon points="264 154 275 154 275 143 275 132 264 132 264 143 253 143 253 154 264 154"/>
  <rect x="275" y="121" width="11" height="11"/>
  <polygon points="308 121 319 121 319 132 330 132 330 143 330 154 319 154 308 154 308 143 297 143 297 154 297 165 297 176 308 176 319 176 319 165 330 165 330 176 319 176 319 187 319 198 319 209 330 209 341 209 341 198 341 187 341 176 341 165 352 165 352 176 352 187 363 187 363 176 374 176 374 187 385 187 385 176 396 176 396 165 385 165 374 165 363 165 363 154 352 154 352 143 352 132 363 132 374 132 374 121 374 110 385 110 385 99 385 88 374 88 363 88 363 99 363 110 363 121 352 121 352 110 341 110 341 99 330 99 330 110 319 110 308 110 308 99 319 99 330 99 330 88 319 88 308 88 308 77 297 77 297 66 308 66 308 77 319 77 319 66 330 66 330 77 341 77 341 66 341 55 330 55 319 55 319 44 319 33 308 33 308 44 297 44 286 44 275 44 275 55 275 66 286 66 286 77 286 88 297 88 297 99 297 110 286 110 286 121 297 121 308 121"/>
  <rect x="209" y="209" width="11" height="11"/>
  <polygon points="374 198 363 198 363 209 363 220 374 220 374 231 363 231 363 242 363 253 363 264 374 264 374 253 374 242 385 242 385 231 385 220 385 209 374 209 374 198"/>
  <polygon points="396 198 385 198 385 209 396 209 407 209 407 220 396 220 396 231 396 242 407 242 418 242 418 231 418 220 418 209 418 198 407 198 407 187 418 187 418 176 407 176 396 176 396 187 396 198"/>
  <rect x="330" y="33" width="11" height="11"/>
  <rect x="330" y="253" width="11" height="11"/>
  <polygon points="352 220 352 209 341 209 341 220 330 220 319 220 319 209 308 209 308 220 297 220 297 209 286 209 275 209 275 220 275 231 286 231 286 242 286 253 297 253 308 253 308 242 297 242 297 231 308 231 319 231 330 231 341 231 341 242 341 253 352 253 352 242 352 231 363 231 363 220 352 220"/>
  <polygon points="374 154 385 154 385 143 385 132 374 132 374 143 374 154"/>
  <rect x="341" y="88" width="11" height="11"/>
  <polygon points="396 121 396 132 396 143 396 154 396 165 407 165 407 154 418 154 429 154 429 143 429 132 440 132 440 121 440 110 429 110 429 99 418 99 407 99 407 110 418 110 418 121 418 132 407 132 407 121 407 110 396 110 385 110 385 121 396 121"/>
</svg>