<?xml version="1.0" encoding="UTF-8"?>
<svg id="Calque_1" xmlns="http://www.w3.org/2000/svg" version="1.1" viewBox="0 0 451 451">
  <!-- Generator: Adobe Illustrator 30.5.0, SVG Export Plug-In . SVG Version: 2.1.4 Build 167)  -->
  <polygon points="253 22 253 11 242 11 242 0 231 0 231 11 231 22 242 22 242 33 253 33 253 22"/>
  <polygon points="275 11 275 22 286 22 286 11 286 0 275 0 264 0 253 0 253 11 264 11 275 11"/>
  <polygon points="308 11 308 0 297 0 297 11 297 22 297 33 308 33 308 22 308 11"/>
  <polygon points="231 44 242 44 242 33 231 33 220 33 220 44 220 55 231 55 231 44"/>
  <rect x="110" y="66" width="11" height="11"/>
  <rect x="121" y="77" width="11" height="11"/>
  <rect x="132" y="66" width="11" height="11"/>
  <rect x="198" width="11" height="11"/>
  <polygon points="264 33 264 44 275 44 286 44 286 33 275 33 275 22 264 22 264 33"/>
  <polygon points="209 44 209 33 209 22 198 22 198 11 187 11 187 0 176 0 176 11 165 11 165 22 176 22 187 22 187 33 187 44 198 44 209 44"/>
  <rect x="374" y="308" width="11" height="11"/>
  <rect x="363" y="264" width="11" height="11"/>
  <polygon points="352 121 363 121 363 110 363 99 352 99 352 110 341 110 330 110 330 121 341 121 352 121"/>
  <rect x="110" y="88" width="11" height="11"/>
  <polygon points="385 99 385 110 385 121 396 121 407 121 418 121 418 110 407 110 407 99 396 99 396 88 385 88 374 88 363 88 363 99 374 99 385 99"/>
  <polygon points="374 231 385 231 385 242 396 242 396 231 396 220 385 220 385 209 374 209 363 209 363 220 374 220 374 231"/>
  <rect x="385" y="253" width="11" height="11"/>
  <polygon points="352 44 352 55 341 55 341 66 352 66 352 77 363 77 363 66 363 55 363 44 363 33 352 33 341 33 341 44 352 44"/>
  <rect x="330" y="396" width="11" height="11"/>
  <rect x="407" y="88" width="11" height="11"/>
  <rect x="407" y="308" width="11" height="11"/>
  <polygon points="407 308 407 297 396 297 396 286 385 286 385 297 385 308 396 308 407 308"/>
  <polygon points="341 99 341 88 341 77 341 66 330 66 330 77 330 88 319 88 319 99 330 99 341 99"/>
  <polygon points="319 66 330 66 330 55 319 55 319 44 330 44 330 33 341 33 341 22 330 22 319 22 319 33 308 33 308 44 308 55 308 66 308 77 308 88 319 88 319 77 319 66"/>
  <polygon points="418 253 418 264 429 264 440 264 440 253 451 253 451 242 440 242 429 242 429 253 418 253"/>
  <rect x="418" y="231" width="11" height="11"/>
  <rect x="407" y="242" width="11" height="11"/>
  <rect x="418" y="440" width="11" height="11"/>
  <polygon points="154 440 154 451 165 451 176 451 176 440 165 440 154 440"/>
  <rect x="396" y="429" width="11" height="11"/>
  <polygon points="429 429 429 440 440 440 451 440 451 429 440 429 429 429"/>
  <rect x="385" y="440" width="11" height="11"/>
  <rect x="440" y="264" width="11" height="11"/>
  <rect x="396" y="22" width="33" height="33"/>
  <polygon points="440 187 429 187 429 198 429 209 429 220 440 220 440 209 451 209 451 198 440 198 440 187"/>
  <rect x="440" y="220" width="11" height="11"/>
  <path d="M0,451h77v-77H0v77ZM11,385h55v55H11v-55Z"/>
  <polygon points="110 44 121 44 121 33 132 33 132 44 121 44 121 55 132 55 143 55 143 44 143 33 143 22 132 22 121 22 110 22 110 11 121 11 132 11 143 11 143 22 154 22 154 11 154 0 143 0 132 0 121 0 110 0 99 0 99 11 88 11 88 22 99 22 99 33 88 33 88 44 99 44 110 44"/>
  <rect x="22" y="396" width="33" height="33"/>
  <rect x="330" width="11" height="11"/>
  <rect x="352" width="11" height="11"/>
  <path d="M374,0v77h77V0h-77ZM440,66h-55V11h55v55Z"/>
  <polygon points="11 99 11 88 0 88 0 99 0 110 11 110 11 99"/>
  <rect x="22" y="22" width="33" height="33"/>
  <path d="M77,0H0v77h77V0ZM66,66H11V11h55v55Z"/>
  <rect x="44" y="99" width="11" height="11"/>
  <path d="M77,308h-11v-11h-11v-11h-11v-11h-22v-11h-11v11H0v33h11v22h33v-11h-22v-11h22v11h11v33h11v-11h11v-11h-11v-11h11v11h11v-11h11v-11h-11v-11h-11v11ZM33,297h-11v-11h11v11Z"/>
  <polygon points="396 209 396 220 407 220 407 231 418 231 418 220 418 209 407 209 407 198 396 198 396 209"/>
  <polygon points="396 143 385 143 385 154 374 154 374 165 385 165 385 176 385 187 396 187 396 176 407 176 407 187 407 198 418 198 418 187 418 176 418 165 407 165 407 154 396 154 396 143"/>
  <polygon points="33 341 22 341 22 352 33 352 44 352 44 341 33 341"/>
  <polygon points="11 330 0 330 0 341 0 352 11 352 11 341 11 330"/>
  <polygon points="33 88 22 88 22 99 33 99 44 99 44 88 33 88"/>
  <rect x="11" y="132" width="11" height="11"/>
  <rect y="121" width="11" height="11"/>
  <rect x="165" y="407" width="11" height="11"/>
  <rect x="385" y="418" width="11" height="11"/>
  <rect x="66" y="352" width="11" height="11"/>
  <rect x="44" y="352" width="11" height="11"/>
  <polygon points="440 143 440 132 429 132 429 143 418 143 418 132 407 132 407 143 407 154 418 154 429 154 429 165 429 176 440 176 440 165 451 165 451 154 440 154 440 143"/>
  <polygon points="209 440 198 440 187 440 187 451 198 451 209 451 220 451 220 440 220 429 209 429 209 440"/>
  <polygon points="440 88 429 88 429 99 429 110 440 110 451 110 451 99 440 99 440 88"/>
  <rect x="66" y="286" width="11" height="11"/>
  <rect x="11" y="352" width="11" height="11"/>
  <polygon points="110 198 110 209 121 209 121 198 121 187 110 187 99 187 88 187 88 198 99 198 110 198"/>
  <polygon points="209 209 220 209 231 209 231 198 231 187 220 187 220 176 209 176 209 187 198 187 198 198 209 198 209 209"/>
  <polygon points="275 286 275 275 275 264 264 264 264 275 253 275 253 286 264 286 275 286"/>
  <polygon points="165 242 165 231 176 231 176 220 187 220 198 220 198 209 187 209 176 209 165 209 165 198 154 198 154 209 143 209 143 198 154 198 154 187 143 187 143 176 143 165 132 165 132 176 132 187 132 198 132 209 121 209 121 220 132 220 132 231 143 231 143 242 154 242 154 253 165 253 165 242"/>
  <polygon points="110 165 110 176 121 176 121 165 121 154 110 154 110 165"/>
  <polygon points="242 286 242 275 242 264 231 264 231 253 220 253 220 264 209 264 198 264 198 275 209 275 220 275 231 275 231 286 231 297 242 297 253 297 253 286 242 286"/>
  <rect x="55" y="187" width="11" height="11"/>
  <polygon points="88 275 88 286 88 297 99 297 99 286 110 286 110 275 99 275 88 275"/>
  <rect x="110" y="264" width="11" height="11"/>
  <polygon points="154 176 165 176 176 176 176 165 165 165 165 154 154 154 143 154 143 165 154 165 154 176"/>
  <polygon points="132 319 132 308 121 308 110 308 110 319 110 330 121 330 121 319 132 319"/>
  <rect x="242" y="385" width="11" height="11"/>
  <polygon points="253 341 264 341 264 330 253 330 242 330 242 341 242 352 242 363 253 363 253 352 253 341"/>
  <polygon points="176 198 187 198 187 187 187 176 176 176 176 187 176 198"/>
  <rect x="55" y="209" width="11" height="11"/>
  <polygon points="143 319 154 319 154 308 154 297 165 297 165 286 154 286 154 275 165 275 165 286 176 286 176 275 187 275 187 264 198 264 198 253 198 242 187 242 187 253 176 253 176 264 165 264 154 264 154 253 143 253 143 264 132 264 132 275 121 275 121 286 121 297 132 297 132 308 143 308 143 319"/>
  <polygon points="110 231 110 242 99 242 88 242 88 253 88 264 99 264 99 253 110 253 121 253 121 242 132 242 132 231 121 231 110 231"/>
  <polygon points="99 220 99 209 88 209 88 198 77 198 66 198 66 209 77 209 77 220 66 220 66 231 77 231 88 231 99 231 110 231 110 220 99 220"/>
  <rect x="275" y="341" width="11" height="11"/>
  <rect x="363" y="165" width="11" height="11"/>
  <polygon points="363 154 374 154 374 143 385 143 385 132 374 132 363 132 352 132 352 143 363 143 363 154"/>
  <path d="M55,154h11v-11h22v-11h44v11h11v-22h11v-22h11v-33h11v11h11v-11h11v-11h-11v-11h-11v11h-11v-11h-11v33h-11v22h-11v22h-22v-11h-11v11h-11v-11h-33v11h-22v-11h-11v22h22v11h11v11ZM66,121h11v11h-11v-11Z"/>
  <polygon points="330 154 319 154 319 165 319 176 319 187 308 187 308 176 297 176 297 187 297 198 308 198 319 198 330 198 330 187 341 187 352 187 352 198 363 198 374 198 374 187 363 187 363 176 352 176 352 165 341 165 341 176 330 176 330 165 341 165 341 154 352 154 352 143 341 143 341 132 330 132 330 121 319 121 319 132 319 143 330 143 330 154"/>
  <polygon points="77 99 88 99 88 110 99 110 99 99 99 88 99 77 99 66 99 55 88 55 88 66 88 77 88 88 77 88 66 88 55 88 55 99 66 99 77 99"/>
  <polygon points="33 220 33 209 33 198 33 187 44 187 44 176 44 165 44 154 44 143 33 143 33 154 33 165 33 176 22 176 22 165 11 165 11 154 0 154 0 165 0 176 0 187 11 187 22 187 22 198 22 209 11 209 11 220 22 220 33 220"/>
  <rect x="209" y="55" width="11" height="11"/>
  <polygon points="77 264 66 264 66 275 77 275 88 275 88 264 77 264"/>
  <polygon points="242 66 242 77 231 77 231 66 220 66 220 77 220 88 231 88 231 99 220 99 220 110 231 110 231 121 231 132 220 132 220 121 209 121 209 110 198 110 198 99 209 99 220 99 220 88 209 88 198 88 198 77 187 77 187 88 176 88 176 99 187 99 187 110 176 110 176 121 187 121 187 132 198 132 198 143 198 154 209 154 209 143 220 143 220 154 231 154 231 143 242 143 242 132 242 121 242 110 253 110 264 110 275 110 275 121 286 121 286 110 297 110 297 121 286 121 286 132 297 132 297 143 286 143 286 154 297 154 297 165 308 165 308 154 319 154 319 143 308 143 308 132 308 121 308 110 319 110 319 99 308 99 297 99 286 99 275 99 275 88 286 88 297 88 297 77 297 66 286 66 286 77 275 77 275 66 264 66 264 77 264 88 253 88 253 99 242 99 242 88 253 88 253 77 253 66 253 55 242 55 231 55 231 66 242 66"/>
  <rect x="66" y="242" width="11" height="11"/>
  <polygon points="341 319 341 308 341 297 330 297 319 297 319 308 319 319 330 319 341 319"/>
  <polygon points="330 198 330 209 319 209 319 220 330 220 330 231 330 242 319 242 319 231 308 231 297 231 297 242 286 242 286 231 297 231 297 220 308 220 308 209 297 209 286 209 286 198 275 198 275 187 264 187 253 187 253 176 242 176 242 187 242 198 253 198 264 198 264 209 275 209 275 220 275 231 264 231 253 231 253 242 242 242 231 242 231 253 242 253 253 253 264 253 264 242 275 242 275 253 286 253 286 264 297 264 297 275 297 286 286 286 286 297 297 297 297 308 297 319 286 319 275 319 275 308 264 308 264 297 253 297 253 308 242 308 242 319 253 319 264 319 264 330 275 330 286 330 297 330 308 330 308 341 319 341 319 352 319 363 308 363 308 352 297 352 286 352 286 363 275 363 275 352 264 352 264 363 253 363 253 374 253 385 264 385 275 385 275 374 286 374 297 374 297 385 286 385 286 396 286 407 297 407 308 407 308 396 319 396 319 385 319 374 330 374 330 363 330 352 330 341 341 341 341 330 330 330 319 330 319 319 308 319 308 308 308 297 319 297 319 286 308 286 308 275 308 264 319 264 319 253 330 253 341 253 341 264 352 264 363 264 363 253 363 242 352 242 352 231 363 231 363 220 352 220 352 209 352 198 341 198 330 198"/>
  <rect x="341" y="319" width="11" height="11"/>
  <polygon points="22 231 11 231 11 220 0 220 0 231 0 242 11 242 22 242 33 242 33 231 22 231"/>
  <polygon points="55 253 55 242 44 242 33 242 33 253 44 253 44 264 55 264 66 264 66 253 55 253"/>
  <polygon points="352 286 341 286 341 297 352 297 352 308 352 319 363 319 363 308 363 297 374 297 374 286 363 286 363 275 352 275 352 286"/>
  <rect x="198" y="66" width="11" height="11"/>
  <path d="M407,396v-11h11v-22h-11v-11h-11v-11h11v11h22v-11h-11v-11h-44v-11h-11v22h22v11h-33v11h-11v11h11v55h-22v-22h-11v22h-55v11h22v11h22v-11h11v11h22v-11h11v11h22v-11h-11v-22h11v-11h33v22h11v-11h11v-22h-22ZM396,374v22h-33v-33h33v11Z"/>
  <rect x="44" y="198" width="11" height="11"/>
  <rect x="176" y="286" width="11" height="11"/>
  <rect x="187" y="275" width="11" height="11"/>
  <rect x="44" y="220" width="11" height="11"/>
  <polygon points="275 418 286 418 286 407 275 407 264 407 253 407 253 418 242 418 242 429 231 429 231 440 231 451 242 451 242 440 253 440 253 429 264 429 264 418 275 418"/>
  <rect x="374" y="374" width="11" height="11"/>
  <rect x="55" y="165" width="11" height="11"/>
  <rect x="165" y="297" width="11" height="11"/>
  <polygon points="176 330 187 330 187 341 198 341 198 330 209 330 209 319 209 308 198 308 187 308 187 319 176 319 165 319 165 330 165 341 176 341 176 330"/>
  <polygon points="231 407 220 407 209 407 209 396 198 396 198 407 198 418 209 418 220 418 220 429 231 429 231 418 231 407"/>
  <polygon points="209 297 220 297 220 286 209 286 198 286 198 297 209 297"/>
  <polygon points="231 374 220 374 220 385 209 385 209 396 220 396 231 396 231 385 242 385 242 374 231 374"/>
  <polygon points="176 363 187 363 187 352 176 352 165 352 165 363 176 363"/>
  <polygon points="418 275 418 264 407 264 396 264 396 275 407 275 407 286 418 286 418 297 429 297 429 308 429 319 418 319 418 330 429 330 429 341 440 341 440 330 451 330 451 319 440 319 440 308 440 297 440 286 440 275 429 275 418 275"/>
  <rect x="154" y="341" width="11" height="11"/>
  <polygon points="429 352 429 363 440 363 440 374 440 385 429 385 429 396 440 396 440 407 440 418 451 418 451 407 451 396 451 385 451 374 451 363 451 352 451 341 440 341 440 352 429 352"/>
  <polygon points="242 209 242 220 231 220 220 220 220 231 220 242 231 242 231 231 242 231 253 231 253 220 264 220 264 209 253 209 242 209"/>
  <rect x="209" y="154" width="11" height="11"/>
  <polygon points="176 143 176 154 187 154 187 143 187 132 176 132 176 143"/>
  <rect x="242" y="143" width="11" height="11"/>
  <rect x="154" y="121" width="11" height="11"/>
  <polygon points="77 176 88 176 88 165 99 165 99 154 99 143 88 143 88 154 77 154 66 154 66 165 77 165 77 176"/>
  <rect x="110" y="341" width="11" height="11"/>
  <polygon points="132 407 132 418 143 418 154 418 154 407 143 407 132 407"/>
  <polygon points="121 407 121 396 121 385 121 374 110 374 99 374 99 363 110 363 110 352 99 352 88 352 88 363 88 374 88 385 88 396 99 396 99 385 110 385 110 396 110 407 99 407 88 407 88 418 88 429 99 429 99 440 88 440 88 451 99 451 110 451 110 440 121 440 121 451 132 451 143 451 143 440 143 429 132 429 132 418 121 418 121 407"/>
  <polygon points="264 132 264 143 275 143 286 143 286 132 275 132 275 121 264 121 264 132"/>
  <rect x="66" y="176" width="11" height="11"/>
  <polygon points="264 165 264 154 253 154 253 165 253 176 264 176 264 165"/>
  <polygon points="231 363 231 352 231 341 220 341 220 352 209 352 209 363 220 363 231 363"/>
  <polygon points="209 385 209 374 198 374 187 374 187 385 176 385 176 396 187 396 198 396 198 385 209 385"/>
  <polygon points="275 165 275 176 275 187 286 187 286 176 297 176 297 165 286 165 286 154 275 154 275 165"/>
  <polygon points="165 374 154 374 154 363 154 352 143 352 143 341 154 341 154 330 143 330 143 319 132 319 132 330 121 330 121 341 132 341 132 352 132 363 143 363 143 374 132 374 132 385 132 396 143 396 154 396 154 407 165 407 165 396 165 385 176 385 176 374 165 374"/>
  <rect x="220" y="319" width="11" height="11"/>
</svg>